<svg width="22" height="22" viewBox="0 0 22 22" fill="none" xmlns="http://www.w3.org/2000/svg">
<path d="M20.0843 2L20.8152 1.31756V1.31755L20.0843 2ZM0.29446 20.2913C-0.0969276 20.681 -0.0983292 21.3142 0.29133 21.7055C0.680989 22.0969 1.31415 22.0983 1.70554 21.7087L0.29446 20.2913ZM19.057 1.45413L18.8826 2.4388L19.057 1.45413ZM10.9999 0C10.4476 4.80413e-05 9.99997 0.447802 10 1.00009C10.0001 1.55237 10.4478 2.00005 11.0001 2L10.9999 0ZM20 11C20 11.5523 20.4477 12 21 12C21.5523 12 22 11.5523 22 11H20ZM20.5459 2.94349L19.5612 3.1177V3.1177L20.5459 2.94349ZM19.3788 1.29133L0.29446 20.2913L1.70554 21.7087L20.7898 2.70867L19.3788 1.29133ZM19.2314 0.469448C17.869 0.22818 15.7885 0.11371 14.0994 0.0571467C13.244 0.0285043 12.4704 0.0142306 11.9107 0.00710946C11.6306 0.00354695 11.4038 0.0017699 11.2466 0.000883281C11.1679 0.000439942 11.1067 0.000219047 11.0649 0.000109076C11.044 5.40614e-05 11.028 2.68221e-05 11.0171 1.32918e-05C11.0116 6.49691e-06 11.0074 3.15905e-06 11.0046 1.54972e-06C11.0031 7.15256e-07 11.002 3.57628e-07 11.0013 1.78814e-07C11.0009 5.96046e-08 11.0006 0 11.0003 0C11.0002 0 11.0001 0 11.0001 0C11 0 10.9999 0 11 1C11.0001 2 11.0001 2 11.0001 2C11.0001 2 11.0001 2 11.0002 2C11.0003 2 11.0005 2 11.0008 2C11.0013 2 11.0022 2 11.0034 2C11.0059 2 11.0096 2.00001 11.0146 2.00001C11.0246 2.00002 11.0397 2.00005 11.0597 2.0001C11.0996 2.00021 11.1588 2.00042 11.2353 2.00085C11.3883 2.00171 11.6104 2.00345 11.8852 2.00695C12.4351 2.01394 13.1944 2.02796 14.0324 2.05603C15.73 2.11287 17.678 2.22547 18.8826 2.4388L19.2314 0.469448ZM21 11C22 11 22 10.9999 22 10.9999C22 10.9998 22 10.9997 22 10.9996C22 10.9994 22 10.9991 22 10.9987C22 10.9979 22 10.9968 22 10.9954C22 10.9925 22 10.9883 22 10.9828C22 10.9719 21.9999 10.9559 21.9999 10.935C21.9998 10.8932 21.9995 10.832 21.9991 10.7534C21.9982 10.5962 21.9964 10.3693 21.9928 10.0893C21.9857 9.52965 21.9713 8.75608 21.9427 7.90081C21.8861 6.21178 21.7716 4.13145 21.5306 2.76928L19.5612 3.1177C19.7743 4.32238 19.8869 6.27031 19.9438 7.96782C19.9719 8.80582 19.986 9.56509 19.993 10.1149C19.9965 10.3897 19.9983 10.6118 19.9991 10.7648C19.9996 10.8413 19.9998 10.9006 19.9999 10.9404C19.9999 10.9604 20 10.9755 20 10.9855C20 10.9905 20 10.9942 20 10.9967C20 10.9979 20 10.9988 20 10.9993C20 10.9996 20 10.9998 20 10.9999C20 11 20 11 20 11C20 11 20 11 21 11ZM18.8826 2.4388C19.0907 2.47566 19.2455 2.56688 19.3534 2.68245L20.8152 1.31755C20.3996 0.872428 19.8486 0.57876 19.2314 0.469448L18.8826 2.4388ZM19.3534 2.68245C19.4508 2.78681 19.528 2.93021 19.5612 3.1177L21.5306 2.76929C21.4328 2.21668 21.1872 1.71595 20.8152 1.31756L19.3534 2.68245Z" fill="#333F48" fill-opacity="0.85"/>
</svg>
