<svg width="44" height="38" viewBox="0 0 44 38" fill="none" xmlns="http://www.w3.org/2000/svg">
<path fill-rule="evenodd" clip-rule="evenodd" d="M37 2.33366C37 1.41318 36.2539 0.666992 35.3334 0.666992H22.0001H8.66672L8.47235 0.678205C7.64345 0.77448 7.00005 1.47893 7.00005 2.33366C7.00005 3.25413 7.74624 4.00033 8.66672 4.00033H20.3334V34.0003H5.33338L5.13902 34.0115C4.31012 34.1078 3.66672 34.8123 3.66672 35.667C3.66672 36.5875 4.41291 37.3337 5.33338 37.3337H22.0001H38.6667L38.8611 37.3224C39.69 37.2262 40.3334 36.5217 40.3334 35.667C40.3334 34.7465 39.5872 34.0003 38.6667 34.0003H23.6667V4.00033H35.3334L35.5278 3.98911C36.3567 3.89284 37 3.18839 37 2.33366ZM6.30646 9.16563L0.473122 22.499C-0.00862965 23.6001 0.798132 24.8337 2.00005 24.8337H13.6667C14.8686 24.8337 15.6754 23.6001 15.1936 22.499L9.36031 9.16563C8.77778 7.83411 6.88899 7.83411 6.30646 9.16563ZM7.83338 13.992L11.1167 21.5003H4.54838L7.83338 13.992ZM28.8065 22.499L34.6398 9.16563C35.2223 7.83411 37.1111 7.83411 37.6936 9.16563L43.527 22.499C44.0087 23.6001 43.202 24.8337 42 24.8337H30.3334C29.1315 24.8337 28.3247 23.6001 28.8065 22.499ZM36.1667 13.992L39.4501 21.5003H32.8817L36.1667 13.992Z" fill="#333F48"/>
</svg>
