<svg width="42" height="30" viewBox="0 0 42 30" fill="none" xmlns="http://www.w3.org/2000/svg">
<path fill-rule="evenodd" clip-rule="evenodd" d="M36 3.33333H32.6667V25H29.3334V1.66667C29.3334 0.746192 30.0795 0 31 0H37.6667C38.5872 0 39.3334 0.746192 39.3334 1.66667V25H36V3.33333ZM19.3334 10H22.6667V25H26V8.33333C26 7.41286 25.2538 6.66667 24.3334 6.66667H17.6667C16.7462 6.66667 16 7.41286 16 8.33333V25H19.3334V10ZM9.33335 16.6667H6.00002V25H2.66669V15C2.66669 14.0795 3.41288 13.3333 4.33335 13.3333H11C11.9205 13.3333 12.6667 14.0795 12.6667 15V25H9.33335V16.6667ZM40.1667 30H1.83335C0.912879 30 0.166687 29.2538 0.166687 28.3333C0.166687 27.4129 0.912879 26.6667 1.83335 26.6667H40.1667C41.0872 26.6667 41.8334 27.4129 41.8334 28.3333C41.8334 29.2538 41.0872 30 40.1667 30Z" fill="#333F48"/>
</svg>
