<svg width="46" height="38" viewBox="0 0 46 38" fill="none" xmlns="http://www.w3.org/2000/svg">
<path fill-rule="evenodd" clip-rule="evenodd" d="M24 33.7188C24 36.867 27.8784 38.4878 30.1928 36.395L44.6241 21.5364C46.0198 20.1441 46.0198 17.8568 44.6055 16.4456L30.2708 1.68111C27.8784 -0.48696 24 1.13388 24 4.2821V10.6671H12.3333V14.0004H27.3333V4.2821C27.3333 4.06926 27.7531 3.89382 27.9571 4.0783L42.2325 18.7864C42.3602 18.9141 42.3602 19.0868 42.2511 19.1956L27.8792 33.9978C27.7531 34.107 27.3333 33.9316 27.3333 33.7188V24.0004H0.666656V27.3338H24V33.7188ZM5.66666 20.6671H15.6667V17.3338H5.66666V20.6671Z" fill="#333F48"/>
</svg>
