<svg width="34" height="34" viewBox="0 0 34 34" fill="none" xmlns="http://www.w3.org/2000/svg">
<path fill-rule="evenodd" clip-rule="evenodd" d="M7.56152 0C11.7037 0 15.0615 3.35786 15.0615 7.5C15.0615 11.6421 11.7037 15 7.56152 15C3.41938 15 0.0615234 11.6421 0.0615234 7.5C0.0615234 3.35786 3.41938 0 7.56152 0ZM7.56152 3.33333C5.26033 3.33333 3.39486 5.19881 3.39486 7.5C3.39486 9.80119 5.26033 11.6667 7.56152 11.6667C9.86272 11.6667 11.7282 9.80119 11.7282 7.5C11.7282 5.19881 9.86272 3.33333 7.56152 3.33333ZM25.8949 18.3333C30.037 18.3333 33.3949 21.6912 33.3949 25.8333C33.3949 29.9755 30.037 33.3333 25.8949 33.3333C21.7527 33.3333 18.3949 29.9755 18.3949 25.8333C18.3949 21.6912 21.7527 18.3333 25.8949 18.3333ZM25.8949 21.6667C23.5937 21.6667 21.7282 23.5321 21.7282 25.8333C21.7282 28.1345 23.5937 30 25.8949 30C28.196 30 30.0615 28.1345 30.0615 25.8333C30.0615 23.5321 28.196 21.6667 25.8949 21.6667ZM2.9067 32.8452L32.9067 2.84518C33.5576 2.1943 33.5576 1.13903 32.9067 0.488155C32.2558 -0.162718 31.2006 -0.162718 30.5497 0.488155L0.549679 30.4882C-0.101195 31.139 -0.101195 32.1943 0.549679 32.8452C1.20055 33.4961 2.25583 33.4961 2.9067 32.8452Z" fill="#333F48"/>
</svg>
