<svg width="44" height="34" viewBox="0 0 44 34" fill="none" xmlns="http://www.w3.org/2000/svg">
<path fill-rule="evenodd" clip-rule="evenodd" d="M1.99999 0.333008H42C42.9205 0.333008 43.6667 1.0792 43.6667 1.99967V25.333C43.6667 26.2535 42.9205 26.9997 42 26.9997H1.99999C1.07951 26.9997 0.333321 26.2535 0.333321 25.333V1.99967C0.333321 1.0792 1.07951 0.333008 1.99999 0.333008ZM40.3333 3.66634H3.66666V23.6663H40.3333V3.66634ZM28.6667 13.6663C28.6667 9.9842 25.6821 6.99967 22 6.99967C18.3178 6.99967 15.3333 9.9842 15.3333 13.6663C15.3333 17.3485 18.3178 20.333 22 20.333C25.6821 20.333 28.6667 17.3485 28.6667 13.6663ZM22 10.333C20.1588 10.333 18.6667 11.8251 18.6667 13.6663C18.6667 15.5075 20.1588 16.9997 22 16.9997C23.8412 16.9997 25.3333 15.5075 25.3333 13.6663C25.3333 11.8251 23.8412 10.333 22 10.333ZM0.43499 31.9997C0.43499 31.0792 1.18118 30.333 2.10165 30.333H42L42.1944 30.3442C43.0233 30.4405 43.6667 31.1449 43.6667 31.9997C43.6667 32.9202 42.9205 33.6663 42 33.6663H2.10165L1.90729 33.6551C1.07839 33.5589 0.43499 32.8544 0.43499 31.9997ZM8.66666 16.9997H12V10.333H8.66666V16.9997ZM32 16.9997V10.333H35.3333V16.9997H32Z" fill="#333F48"/>
</svg>
