<svg width="34" height="28" viewBox="0 0 34 28" fill="none" xmlns="http://www.w3.org/2000/svg">
<path fill-rule="evenodd" clip-rule="evenodd" d="M2.99997 6.00002V4.66669C2.99997 3.93107 3.6475 3.33335 4.44442 3.33335H29C29.7977 3.33335 30.4444 2.7364 30.4444 2.00002C30.4444 1.26364 29.7977 0.666687 29 0.666687H4.44442C2.05201 0.666687 0.111084 2.45831 0.111084 4.66669V23.3334C0.111084 25.5417 2.05201 27.3334 4.44442 27.3334H29C31.3924 27.3334 33.3333 25.5417 33.3333 23.3334V10C33.3333 7.79164 31.3924 6.00002 29 6.00002H2.99997ZM2.99997 8.66669H29C29.7969 8.66669 30.4444 9.2644 30.4444 10V23.3334C30.4444 24.069 29.7969 24.6667 29 24.6667H4.44442C3.6475 24.6667 2.99997 24.069 2.99997 23.3334V8.66669ZM27.4941 16.6954C27.4941 17.4167 26.8615 18.0007 26.08 18.0007C25.2986 18.0007 24.6659 17.4167 24.6659 16.6954C24.6659 15.974 25.2986 15.39 26.08 15.39C26.8615 15.39 27.4941 15.974 27.4941 16.6954Z" fill="#333F48"/>
</svg>
