<svg width="48" height="36" viewBox="0 0 48 36" fill="none" xmlns="http://www.w3.org/2000/svg">
<path fill-rule="evenodd" clip-rule="evenodd" d="M45.3334 0.222168H2.66669C1.68485 0.222168 0.888916 1.01811 0.888916 1.99995V26.8888C0.888916 27.8707 1.68485 28.6666 2.66669 28.6666H45.3334C46.3152 28.6666 47.1111 27.8707 47.1111 26.8888V1.99995C47.1111 1.01811 46.3152 0.222168 45.3334 0.222168ZM43.5556 3.77772V25.1111H4.44447V3.77772H43.5556ZM16.8889 14.4444C16.8889 10.5168 20.0724 7.33328 24 7.33328C27.9276 7.33328 31.1111 10.5168 31.1111 14.4444C31.1111 18.372 27.9276 21.5555 24 21.5555C20.0724 21.5555 16.8889 18.372 16.8889 14.4444ZM24 10.8888C25.964 10.8888 27.5556 12.4805 27.5556 14.4444C27.5556 16.4083 25.964 17.9999 24 17.9999C22.0361 17.9999 20.4445 16.4083 20.4445 14.4444C20.4445 12.4805 22.0361 10.8888 24 10.8888ZM47.0027 33.9999C47.0027 33.0181 46.2068 32.2222 45.2249 32.2222H2.66669L2.45937 32.2341C1.57521 32.3368 0.888916 33.0882 0.888916 33.9999C0.888916 34.9818 1.68485 35.7777 2.66669 35.7777H45.2249L45.4322 35.7658C46.3164 35.6631 47.0027 34.9117 47.0027 33.9999ZM38.2222 17.9999H34.6667V10.8888H38.2222V17.9999ZM13.3334 17.9999V10.8888H9.77781V17.9999H13.3334Z" fill="#333F48"/>
</svg>
