<svg width="40" height="40" viewBox="0 0 40 40" fill="none" xmlns="http://www.w3.org/2000/svg">
<path d="M20.1415 0.444458C9.26332 0.444458 0.445312 9.19951 0.445312 20C0.445312 20.9819 1.24698 21.7778 2.23588 21.7778C3.22478 21.7778 4.02644 20.9819 4.02644 20C4.02644 11.1632 11.2411 4.00001 20.1415 4.00001C25.6174 4.00001 30.5853 6.74009 33.5239 11.0955H29.7075C28.7186 11.0955 27.917 11.8914 27.917 12.8733C27.917 13.8551 28.7186 14.651 29.7075 14.651H36.3077C36.465 14.6722 36.6262 14.6728 36.7871 14.651H37.7651C38.754 14.651 39.5556 13.8551 39.5556 12.8733V4.87326C39.5556 3.89142 38.754 3.09548 37.7651 3.09548C36.7762 3.09548 35.9745 3.89142 35.9745 4.87326V8.37656C32.3337 3.48562 26.5193 0.444458 20.1415 0.444458Z" fill="#333F48"/>
<path d="M39.5556 20C39.5556 30.8005 30.7376 39.5556 19.8594 39.5556C13.5061 39.5556 7.71198 36.5378 4.06856 31.6799V35.1111C4.06856 36.093 3.2669 36.8889 2.278 36.8889C1.2891 36.8889 0.48744 36.093 0.48744 35.1111V27.1111C0.48744 26.1293 1.2891 25.3333 2.278 25.3333H3.41322C3.44003 25.3327 3.46682 25.3328 3.49354 25.3333H10.3355C11.3244 25.3333 12.1261 26.1293 12.1261 27.1111C12.1261 28.093 11.3244 28.8889 10.3355 28.8889H6.46648C9.4037 33.2534 14.377 36 19.8594 36C28.7598 36 35.9745 28.8368 35.9745 20C35.9745 19.0182 36.7762 18.2222 37.7651 18.2222C38.754 18.2222 39.5556 19.0182 39.5556 20Z" fill="#333F48"/>
</svg>
