<svg width="48" height="48" viewBox="0 0 48 48" fill="none" xmlns="http://www.w3.org/2000/svg">
<path fill-rule="evenodd" clip-rule="evenodd" d="M24 0.888916C36.7632 0.888916 47.1111 11.2369 47.1111 24C47.1111 36.7632 36.7632 47.1111 24 47.1111C11.2369 47.1111 0.888916 36.7632 0.888916 24C0.888916 11.2369 11.2369 0.888916 24 0.888916ZM24 4.44447C13.2005 4.44447 4.44447 13.2005 4.44447 24C4.44447 34.7995 13.2005 43.5556 24 43.5556C34.7995 43.5556 43.5556 34.7995 43.5556 24C43.5556 13.2005 34.7995 4.44447 24 4.44447ZM23.9996 24.6791L30.128 27.7433C31.0062 28.1824 31.3622 29.2502 30.9231 30.1284C30.484 31.0066 29.4161 31.3625 28.5379 30.9235L21.4268 27.3679C20.8245 27.0668 20.4441 26.4512 20.4441 25.7778V13.3334C20.4441 12.3515 21.24 11.5556 22.2219 11.5556C23.2037 11.5556 23.9996 12.3515 23.9996 13.3334V24.6791Z" fill="#333F48"/>
</svg>
