<svg width="46" height="33" viewBox="0 0 46 33" fill="none" xmlns="http://www.w3.org/2000/svg">
<path fill-rule="evenodd" clip-rule="evenodd" d="M39.0001 4.05556H35.4445V27.1667H31.8889V2.27778C31.8889 1.29594 32.6849 0.5 33.6667 0.5H40.7778C41.7597 0.5 42.5556 1.29594 42.5556 2.27778V27.1667H39.0001V4.05556ZM21.2223 11.1667H24.7778V27.1667H28.3334V9.38889C28.3334 8.40705 27.5374 7.61111 26.5556 7.61111H19.4445C18.4627 7.61111 17.6667 8.40705 17.6667 9.38889V27.1667H21.2223V11.1667ZM10.5556 18.2778H7.00005V27.1667H3.4445V16.5C3.4445 15.5182 4.24044 14.7222 5.22228 14.7222H12.3334C13.3152 14.7222 14.1112 15.5182 14.1112 16.5V27.1667H10.5556V18.2778ZM43.4445 32.5H2.55561C1.57377 32.5 0.777832 31.7041 0.777832 30.7222C0.777832 29.7404 1.57377 28.9444 2.55561 28.9444H43.4445C44.4263 28.9444 45.2223 29.7404 45.2223 30.7222C45.2223 31.7041 44.4263 32.5 43.4445 32.5Z" fill="#333F48"/>
</svg>
