<svg width="37" height="36" viewBox="0 0 37 36" fill="none" xmlns="http://www.w3.org/2000/svg">
<path fill-rule="evenodd" clip-rule="evenodd" d="M8.93237 0C13.3507 0 16.9324 3.58172 16.9324 8C16.9324 12.4183 13.3507 16 8.93237 16C4.51409 16 0.932373 12.4183 0.932373 8C0.932373 3.58172 4.51409 0 8.93237 0ZM8.93237 3.55556C6.47777 3.55556 4.48793 5.5454 4.48793 8C4.48793 10.4546 6.47777 12.4444 8.93237 12.4444C11.387 12.4444 13.3768 10.4546 13.3768 8C13.3768 5.5454 11.387 3.55556 8.93237 3.55556ZM28.4879 19.5556C32.9062 19.5556 36.4879 23.1373 36.4879 27.5556C36.4879 31.9738 32.9062 35.5556 28.4879 35.5556C24.0696 35.5556 20.4879 31.9738 20.4879 27.5556C20.4879 23.1373 24.0696 19.5556 28.4879 19.5556ZM28.4879 23.1111C26.0333 23.1111 24.0435 25.101 24.0435 27.5556C24.0435 30.0102 26.0333 32 28.4879 32C30.9425 32 32.9324 30.0102 32.9324 27.5556C32.9324 25.101 30.9425 23.1111 28.4879 23.1111ZM3.96723 35.0349L35.9672 3.03486C36.6615 2.34059 36.6615 1.21496 35.9672 0.520699C35.273 -0.173566 34.1473 -0.173566 33.4531 0.520699L1.45307 32.5207C0.758807 33.215 0.758807 34.3406 1.45307 35.0349C2.14734 35.7291 3.27296 35.7291 3.96723 35.0349Z" fill="#333F48"/>
</svg>
