<svg width="92" height="94"  xmlns="http://www.w3.org/2000/svg">
<circle cx="60" cy="34" r="60"/>
<path d="M60.0188 37.4587C60.4102 37.069 60.4116 36.4358 60.0219 36.0445C59.6322 35.6531 58.9991 35.6517 58.6077 36.0413L60.0188 37.4587ZM44.2945 50.2913C43.9031 50.681 43.9017 51.3142 44.2913 51.7055C44.681 52.0969 45.3142 52.0983 45.7055 51.7087L44.2945 50.2913ZM58.5427 36.3406L58.3684 37.3253L58.5427 36.3406ZM52.4999 35C51.9476 35 51.5 35.4478 51.5 36.0001C51.5001 36.5524 51.9478 37 52.5001 37L52.4999 35ZM59 43.5C59 44.0523 59.4477 44.5 60 44.5C60.5523 44.5 61 44.0523 61 43.5H59ZM59.6594 37.4576L60.6441 37.2834V37.2834L59.6594 37.4576ZM58.6077 36.0413L44.2945 50.2913L45.7055 51.7087L60.0188 37.4587L58.6077 36.0413ZM58.7171 35.3559C57.6757 35.1715 56.0987 35.0854 54.8329 35.043C54.1892 35.0214 53.6072 35.0107 53.1862 35.0054C52.9755 35.0027 52.8048 35.0013 52.6863 35.0007C52.6271 35.0003 52.5809 35.0002 52.5494 35.0001C52.5336 35 52.5214 35 52.5131 35C52.509 35 52.5058 35 52.5036 35C52.5025 35 52.5016 35 52.501 35C52.5007 35 52.5005 35 52.5003 35C52.5002 35 52.5001 35 52.5001 35C52.5 35 52.4999 35 52.5 36C52.5001 37 52.5001 37 52.5001 37C52.5001 37 52.5001 37 52.5001 37C52.5002 37 52.5003 37 52.5005 37C52.5009 37 52.5016 37 52.5024 37C52.5042 37 52.5069 37 52.5106 37C52.518 37 52.5293 37 52.5441 37.0001C52.5738 37.0002 52.6179 37.0003 52.6751 37.0006C52.7893 37.0013 52.9553 37.0026 53.1607 37.0052C53.5719 37.0104 54.1396 37.0209 54.766 37.0419C56.0402 37.0846 57.4846 37.1688 58.3684 37.3253L58.7171 35.3559ZM60 43.5C61 43.5 61 43.4999 61 43.4999C61 43.4998 61 43.4997 61 43.4997C61 43.4995 61 43.4992 61 43.4989C61 43.4983 61 43.4975 61 43.4964C61 43.4941 61 43.491 61 43.4868C61 43.4785 61 43.4664 60.9999 43.4506C60.9998 43.419 60.9997 43.3728 60.9993 43.3136C60.9986 43.1952 60.9973 43.0245 60.9946 42.8138C60.9892 42.3928 60.9784 41.8108 60.9569 41.1672C60.9144 39.9015 60.8283 38.3247 60.6441 37.2834L58.6747 37.6318C58.8311 38.5157 58.9153 39.96 58.958 41.2342C58.979 41.8606 58.9895 42.4282 58.9948 42.8394C58.9974 43.0448 58.9987 43.2108 58.9994 43.325C58.9997 43.3822 58.9998 43.4263 58.9999 43.456C59 43.4708 59 43.4821 59 43.4895C59 43.4932 59 43.4959 59 43.4977C59 43.4985 59 43.4992 59 43.4996C59 43.4998 59 43.4999 59 43.5C59 43.5 59 43.5 59 43.5C59 43.5 59 43.5 60 43.5ZM58.3684 37.3253C58.5417 37.356 58.644 37.4581 58.6747 37.6318L60.6441 37.2834C60.4671 36.283 59.7178 35.5331 58.7171 35.3559L58.3684 37.3253Z"/>
</svg>
