<svg width="6" height="10" viewBox="0 0 6 10" xmlns="http://www.w3.org/2000/svg">
<path d="M0.0625 3.06032C0.0625 2.68632 0.1835 2.30682 0.4233 1.92292C0.6642 1.53792 1.014 1.22112 1.4749 0.96812C1.9369 0.71622 2.4737 0.59082 3.0886 0.59082C3.6595 0.59082 4.1633 0.69532 4.6011 0.90652C5.0378 1.11772 5.3755 1.40372 5.6131 1.76672C5.8518 2.12862 5.9717 2.52242 5.9717 2.94812C5.9717 3.28252 5.9035 3.57512 5.7671 3.82812C5.6318 4.08112 5.4701 4.29782 5.2831 4.48152C5.0961 4.66412 4.7606 4.97212 4.2755 5.40552C4.1413 5.52762 4.0335 5.63542 3.9532 5.72782C3.8729 5.82022 3.8124 5.90492 3.7739 5.98082C3.7343 6.05782 3.7035 6.13482 3.6815 6.21182C3.6595 6.28882 3.6276 6.42412 3.5847 6.61662C3.5099 7.02692 3.2756 7.23152 2.8807 7.23152C2.6761 7.23152 2.5045 7.16442 2.3637 7.03022C2.224 6.89602 2.1547 6.69802 2.1547 6.43402C2.1547 6.10292 2.2053 5.81582 2.3087 5.57382C2.411 5.33182 2.5463 5.11952 2.7157 4.93582C2.8851 4.75322 3.1139 4.53542 3.401 4.28352C3.654 4.06352 3.8355 3.89632 3.9477 3.78412C4.0599 3.67192 4.1545 3.54652 4.2315 3.40902C4.3085 3.27042 4.347 3.12082 4.347 2.96022C4.347 2.64452 4.2293 2.37832 3.995 2.16162C3.7607 1.94492 3.4582 1.83712 3.0886 1.83712C2.6552 1.83712 2.3362 1.94712 2.1316 2.16492C1.9259 2.38382 1.7532 2.70612 1.6113 3.13072C1.4771 3.57622 1.223 3.79842 0.849 3.79842C0.629 3.79842 0.442 3.72142 0.2902 3.56522C0.1384 3.41012 0.0635999 3.24182 0.0635999 3.05922L0.0625 3.06032ZM2.9467 9.53602C2.7058 9.53602 2.4957 9.45792 2.3175 9.30172C2.1382 9.14662 2.048 8.92882 2.048 8.64942C2.048 8.40082 2.1349 8.19292 2.3087 8.02242C2.4814 7.85412 2.6937 7.76942 2.9467 7.76942C3.1942 7.76942 3.4032 7.85412 3.5726 8.02242C3.742 8.19292 3.8267 8.40082 3.8267 8.64942C3.8267 8.92442 3.7387 9.14112 3.5605 9.29842C3.3845 9.45682 3.1788 9.53602 2.9467 9.53602Z"/>
</svg>
