<svg width="17" height="18" viewBox="0 0 17 18" xmlns="http://www.w3.org/2000/svg">
<path d="M5.81375 18.771C6.539 18.771 7.13238 18.3126 7.13238 17.7523V9.43261C7.13238 8.87231 6.539 8.41388 5.81375 8.41388C5.08851 8.41388 4.49513 8.87231 4.49513 9.43261V17.7523C4.49513 18.3126 5.08851 18.771 5.81375 18.771ZM9.42894 17.7523V11.4191V5.08602C9.42894 4.52572 10.0223 4.06729 10.7476 4.06729C11.4728 4.06729 12.0662 4.52572 12.0662 5.08602V17.7523C12.0662 18.3126 11.4728 18.771 10.7476 18.771C10.0223 18.771 9.42894 18.3126 9.42894 17.7523ZM14.3628 17.7523V13.4736C14.3628 12.9133 14.9561 12.4549 15.6814 12.4549C16.4066 12.4549 17 12.9133 17 13.4736V17.7523C17 18.3126 16.4066 18.771 15.6814 18.771C14.9561 18.771 14.3628 18.3126 14.3628 17.7523Z"/>
<path d="M2.63725 17.7499C2.63725 18.3102 2.04387 18.7686 1.31862 18.7686C0.59338 18.7686 0 18.3102 0 17.7499V1.78973C0 1.22943 0.59338 0.770996 1.31862 0.770996C2.04387 0.770996 2.63725 1.22943 2.63725 1.78973V17.7499Z"/>
</svg>
