<svg width="24" height="25" viewBox="0 0 24 25" xmlns="http://www.w3.org/2000/svg">
<path d="M9.59325 4C11.7731 4 15.2011 4.75761 16.0449 5.38587C16.2383 5.5337 16.3438 5.75544 16.3438 5.99566V13.2207C16.3438 13.4424 16.2383 13.6641 16.0801 13.7935C16.0273 13.8304 14.7968 14.8467 13.5135 15.6044C11.9137 16.5283 10.8062 17.8217 10.5425 18.6348C10.2261 19.6326 9.76904 21 8.32753 21C7.64193 21 7.07939 20.5935 6.78054 19.8913C6.18284 18.45 6.8157 16.4544 7.87047 14.8837C7.16729 14.7174 6.28832 14.4772 5.76093 14.3109C4.79406 13.9967 4.1612 13.2576 4.02057 12.3522C3.89751 11.4283 4.33699 10.4859 5.2687 9.76521C5.9543 7.82499 7.13212 4.75761 7.99352 4.2587C8.32752 4.07392 8.90765 4 9.59325 4ZM14.9374 6.43912C13.6014 5.84782 9.48777 5.23805 8.71428 5.55218C8.30995 5.94022 7.27277 8.4163 6.55201 10.5043C6.49927 10.6522 6.41137 10.7815 6.28832 10.8739C5.70819 11.2804 5.40934 11.7609 5.46208 12.1674C5.51482 12.5 5.79609 12.7772 6.21799 12.925C7.09697 13.2207 9.27681 13.7196 9.31197 13.7196C9.55808 13.775 9.75146 13.9598 9.83936 14.2185C9.92725 14.4772 9.85694 14.7543 9.68115 14.9391C8.099 16.7315 7.81772 18.5609 8.11657 19.3C8.20447 19.5217 8.30995 19.5217 8.36269 19.5217C8.71428 19.5217 8.87249 19.263 9.24166 18.1543C9.66357 16.8609 11.1227 15.3087 12.863 14.3109C13.7068 13.8304 14.5506 13.1837 14.9726 12.8511V6.43912H14.9374Z" fill="#818E9E"/>
<path d="M19.5 6.10586V12.8941C19.5 13.262 19.2162 13.5 19 13.5C18.7684 13.5 18.5 13.279 18.5 12.8941V6.10586C18.5 5.721 18.7684 5.5 19 5.5C19.2316 5.5 19.5 5.721 19.5 6.10586Z" stroke="#818E9E"/>
</svg>
