<svg width="24" height="25" viewBox="0 0 24 25" fill="none" xmlns="http://www.w3.org/2000/svg">
<path d="M14.4067 21C12.2269 21 8.79891 20.2424 7.95509 19.6141C7.76172 19.4663 7.65625 19.2446 7.65625 19.0043V11.7793C7.65625 11.5576 7.76173 11.3359 7.91994 11.2065C7.97268 11.1696 9.20324 10.1533 10.4865 9.39564C12.0863 8.47173 13.1938 7.17827 13.4575 6.36523C13.7739 5.3674 14.231 4 15.6725 4C16.3581 4 16.9206 4.40652 17.2195 5.1087C17.8172 6.55 17.1843 8.54565 16.1295 10.1163C16.8327 10.2826 17.7117 10.5228 18.2391 10.6891C19.2059 11.0033 19.8388 11.7424 19.9794 12.6478C20.1025 13.5717 19.663 14.5141 18.7313 15.2348C18.0457 17.175 16.8679 20.2424 16.0065 20.7413C15.6725 20.9261 15.0923 21 14.4067 21ZM9.06261 18.5609C10.3986 19.1522 14.5122 19.762 15.2857 19.4478C15.69 19.0598 16.7272 16.5837 17.448 14.4957C17.5007 14.3478 17.5886 14.2185 17.7117 14.1261C18.2918 13.7196 18.5907 13.2391 18.5379 12.8326C18.4852 12.5 18.2039 12.2228 17.782 12.075C16.903 11.7793 14.7232 11.2804 14.688 11.2804C14.4419 11.225 14.2485 11.0402 14.1606 10.7815C14.0727 10.5228 14.1431 10.2457 14.3189 10.0609C15.901 8.26849 16.1823 6.43912 15.8834 5.69999C15.7955 5.47825 15.69 5.47826 15.6373 5.47826C15.2857 5.47826 15.1275 5.73696 14.7583 6.84566C14.3364 8.13913 12.8773 9.6913 11.137 10.6891C10.2932 11.1696 9.44935 11.8163 9.02744 12.1489V18.5609H9.06261Z" fill="#818E9E"/>
<path d="M5.5 12.1059V18.8941C5.5 19.262 5.21617 19.5 5 19.5C4.76844 19.5 4.5 19.279 4.5 18.8941V12.1059C4.5 11.721 4.76844 11.5 5 11.5C5.23156 11.5 5.5 11.721 5.5 12.1059Z" stroke="#818E9E"/>
</svg>
